<?xml version="1.0" encoding="UTF-8" standalone="no"?>
<!-- Created with Inkscape (http://www.inkscape.org/) -->

<svg
   xmlns:dc="http://purl.org/dc/elements/1.1/"
   xmlns:cc="http://creativecommons.org/ns#"
   xmlns:rdf="http://www.w3.org/1999/02/22-rdf-syntax-ns#"
   xmlns:svg="http://www.w3.org/2000/svg"
   xmlns="http://www.w3.org/2000/svg"
   xmlns:sodipodi="http://sodipodi.sourceforge.net/DTD/sodipodi-0.dtd"
   xmlns:inkscape="http://www.inkscape.org/namespaces/inkscape"
   width="48pt"
   height="48pt"
   viewBox="0 0 16.933334 16.933333"
   version="1.1"
   id="svg979"
   inkscape:version="0.92.4 (5da689c313, 2019-01-14)"
   sodipodi:docname="14 - Budget.svg"
   inkscape:export-filename="E:\TR Design Studio Creative\Project Design\TR Creative Design\Icon Design\Project Hiring\Icon Icons\003 - Business And Finance\Line\Export\14 - Budget.png"
   inkscape:export-xdpi="768"
   inkscape:export-ydpi="768">
  <defs
     id="defs973" />
  <sodipodi:namedview
     id="base"
     pagecolor="#ffffff"
     bordercolor="#666666"
     borderopacity="1.0"
     inkscape:pageopacity="0.0"
     inkscape:pageshadow="2"
     inkscape:zoom="8.546875"
     inkscape:cx="32"
     inkscape:cy="32"
     inkscape:document-units="pt"
     inkscape:current-layer="layer1"
     showgrid="false"
     units="pt"
     inkscape:window-width="1366"
     inkscape:window-height="716"
     inkscape:window-x="-8"
     inkscape:window-y="-8"
     inkscape:window-maximized="1"
     inkscape:snap-bbox="true"
     inkscape:bbox-nodes="true"
     inkscape:snap-nodes="false"
     showguides="false">
    <inkscape:grid
       type="xygrid"
       id="grid1526" />
    <sodipodi:guide
       position="0.97013909,15.963209"
       orientation="56.666615,0"
       id="guide1528"
       inkscape:locked="false" />
    <sodipodi:guide
       position="0.97013909,0.97016731"
       orientation="0,56.666667"
       id="guide1530"
       inkscape:locked="false" />
    <sodipodi:guide
       position="15.963195,0.97016731"
       orientation="-56.666615,0"
       id="guide1532"
       inkscape:locked="false" />
    <sodipodi:guide
       position="15.963195,15.963209"
       orientation="0,-56.666667"
       id="guide1534"
       inkscape:locked="false" />
  </sodipodi:namedview>
  <metadata
     id="metadata976">
    <rdf:RDF>
      <cc:Work
         rdf:about="">
        <dc:format>image/svg+xml</dc:format>
        <dc:type
           rdf:resource="http://purl.org/dc/dcmitype/StillImage" />
        <dc:title></dc:title>
      </cc:Work>
    </rdf:RDF>
  </metadata>
  <g
     inkscape:label="Layer 1"
     inkscape:groupmode="layer"
     id="layer1"
     transform="translate(0,-280.06668)">
    <path
       style="color:#fe5b0c;font-style:normal;font-variant:normal;font-weight:normal;font-stretch:normal;font-size:medium;line-height:normal;font-family:sans-serif;font-variant-ligatures:normal;font-variant-position:normal;font-variant-caps:normal;font-variant-numeric:normal;font-variant-alternates:normal;font-feature-settings:normal;text-indent:0;text-align:start;text-decoration:none;text-decoration-line:none;text-decoration-style:solid;text-decoration-color:#fe5b0c;letter-spacing:normal;word-spacing:normal;text-transform:none;writing-mode:lr-tb;direction:ltr;text-orientation:mixed;dominant-baseline:auto;baseline-shift:baseline;text-anchor:start;white-space:normal;shape-padding:0;clip-rule:nonzero;display:inline;overflow:visible;visibility:visible;opacity:1;isolation:auto;mix-blend-mode:normal;color-interpolation:sRGB;color-interpolation-filters:linearRGB;solid-color:#fe5b0c;solid-opacity:1;vector-effect:none;fill:#fe5b0c;fill-opacity:1;fill-rule:nonzero;stroke:none;stroke-width:0.529167;stroke-linecap:round;stroke-linejoin:round;stroke-miterlimit:4;stroke-dasharray:none;stroke-dashoffset:0;stroke-opacity:1;color-rendering:auto;image-rendering:auto;shape-rendering:auto;text-rendering:auto;enable-background:accumulate"
       d="m 5.1790272,281.03682 c -0.5357641,0 -0.9785238,0.44022 -0.9785238,0.97598 v 0.6445 c 0,0.42071 0.2747695,0.77948 0.6515009,0.91554 v 0.93398 l -0.6852213,0.6057 c -0.1894223,0.16712 -0.4051584,0.34227 -0.5866053,0.57006 -0.1814455,0.22779 -0.3270229,0.52376 -0.3270229,0.87546 v 7.35356 c -0.019786,0.49583 0.1019149,0.98561 0.3511998,1.41115 0.3082069,0.41151 0.8062643,0.6893 1.2476484,0.69796 2.3517018,0.006 4.7516217,0 7.127699,0 0.465337,0.0548 0.926731,-0.13911 1.224109,-0.50517 0.291473,-0.3997 0.473037,-1.09538 0.478448,-1.59184 v -7.40892 c 0,-0.5354 -0.372822,-1.10801 -0.915537,-1.42135 l -0.748844,-0.59614 v -0.92381 c 0.37737,-0.13537 0.652137,-0.49455 0.652137,-0.91618 v -0.6445 c 0,-0.53576 -0.440851,-0.97597 -0.976616,-0.97597 z m 6.5143718,1.93794 v -0.30983 c 0.0022,-0.18392 -0.148227,-0.33316 -0.332113,-0.32957 -0.178905,0.004 -0.321501,0.15064 -0.319388,0.32957 v 0.30983 h -0.815012 v -0.30983 c 0.0022,-0.1829 -0.146675,-0.33171 -0.3295683,-0.32957 -0.1801539,0.001 -0.3246705,0.14942 -0.3225692,0.32957 v 0.30983 H 8.762281 v -0.30983 c 0.00218,-0.18392 -0.1482265,-0.33316 -0.3321126,-0.32957 -0.1789052,0.004 -0.3215011,0.15064 -0.3193883,0.32957 v 0.30983 H 7.2951316 v -0.30983 c 0.00215,-0.1829 -0.1466746,-0.33171 -0.3295679,-0.32957 -0.1799045,0.002 -0.3240354,0.14966 -0.321933,0.32957 v 0.30983 H 5.8286184 v -0.30983 c 0.00215,-0.1829 -0.1466746,-0.33171 -0.3295678,-0.32957 -0.1791553,0.004 -0.3221337,0.15039 -0.3200244,0.32957 v 0.30983 l -0.036912,6.6e-4 c -0.1663712,-0.018 -0.2901215,-0.14529 -0.2901215,-0.31812 v -0.6445 c 0,-0.2472 0.1691042,-0.32447 0.3270349,-0.32447 H 11.6934 c 0.186101,0 0.324478,0.13838 0.324478,0.32447 v 0.6445 c 0,0.17534 -0.12472,0.30457 -0.294575,0.31939 z m -0.327022,0.65916 v 1.01924 c -9.6e-5,0.0994 0.04511,0.19325 0.122792,0.25513 l 0.90154,0.71893 c 0.345537,0.25 0.632586,0.58373 0.639413,0.88755 v 7.40892 c 0,0.42211 -0.126307,0.83311 -0.34611,1.18529 -0.161222,0.19007 -0.390937,0.28996 -0.627325,0.26213 -0.247032,-3.2e-4 -0.501636,0 -0.751389,0 0.03722,-0.10305 0.06108,-0.21196 0.06108,-0.32702 0,-0.50174 -0.387621,-0.91534 -0.876727,-0.96643 0.03959,-0.10564 0.06426,-0.21864 0.06426,-0.33721 0,-0.11795 -0.02507,-0.22963 -0.06426,-0.33465 0.489106,-0.0513 0.876727,-0.46662 0.876727,-0.96835 0,-0.53576 -0.440216,-0.97661 -0.975979,-0.97661 h -0.06044 c 0.03661,-0.10207 0.06044,-0.2104 0.06044,-0.32448 0,-0.12861 -0.02718,-0.2515 -0.07317,-0.36456 0.414486,-0.11266 0.724667,-0.49084 0.724667,-0.93908 0,-0.53576 -0.440852,-0.97853 -0.976615,-0.97853 H 9.9412188 c 0.5827832,-0.46819 0.9588002,-1.19775 0.9588002,-2.01239 0,-1.39663 -1.1004195,-2.54684 -2.4647598,-2.54684 -1.364339,0 -2.4647601,1.15021 -2.4647601,2.54684 0,0.93825 0.4978236,1.76403 1.2374698,2.20645 -0.2414358,0.1791 -0.4008258,0.46392 -0.4008258,0.78447 0,0.12791 0.026379,0.2503 0.071894,0.36265 -0.4140131,0.11364 -0.723395,0.4931 -0.723395,0.94099 0,0.53576 0.4402162,0.97661 0.975979,0.97661 h 0.060442 c -0.036786,0.10207 -0.060442,0.2104 -0.060442,0.32448 0,0.11881 0.025158,0.23135 0.064896,0.33721 -0.1450579,0.015 -0.2805756,0.0601 -0.4001896,0.13233 0.018213,-0.44626 -0.2757331,-0.86684 -0.723395,-0.9868 -0.5175066,-0.13866 -1.0568129,0.1728 -1.1954787,0.69032 l -0.5904227,2.2039 c -0.025568,0.0954 -0.031503,0.1914 -0.027995,0.28567 -0.2437819,-0.33887 -0.351345,-0.84056 -0.3543806,-1.17641 v -7.36565 c 0,-0.18376 0.062442,-0.31486 0.1851432,-0.46889 0.1226996,-0.15404 0.3086847,-0.31239 0.5077127,-0.48799 l 0.7959253,-0.70241 c 0.070436,-0.0619 0.1107769,-0.15116 0.1107043,-0.24494 v -1.01987 z m -2.9311178,1.31255 c 0.998643,0 1.8132588,0.83771 1.8132588,1.89533 0,1.05762 -0.8146158,1.89724 -1.8132588,1.89724 -0.9986422,0 -1.8132593,-0.83962 -1.8132593,-1.89724 0,-1.05762 0.8146171,-1.89533 1.8132593,-1.89533 z m -0.3244797,0.65213 c -0.011228,-5.9e-4 -0.022486,-5.9e-4 -0.03372,0 -0.1666346,0.0167 -0.2934669,0.15701 -0.2933027,0.32448 v 0.97598 c -0.00104,0.18115 0.145878,0.32835 0.3270229,0.32766 h 0.3244781 v 0.31939 c -0.0017,-10e-6 -0.0034,-10e-6 -0.0051,0 -0.016222,6.5e-4 -0.032386,0.002 -0.048354,0.005 H 8.1107779 c -0.4441946,-0.01 -0.4441946,0.66148 0,0.65151 0.00943,0.42481 0.642072,0.42481 0.6515008,0 0.1789071,-6.5e-4 0.3237628,-0.14558 0.3244781,-0.32448 v -0.97916 c -7.167e-4,-0.1789 -0.145571,-0.32376 -0.3244781,-0.32448 H 8.4352559 v -0.32448 h 0.3270228 c 0.4442138,0.01 0.4442138,-0.66149 0,-0.6515 0.00363,-0.1849 -0.1472098,-0.33573 -0.3296174,-0.33217 -0.1824075,0.004 -0.325412,0.15227 -0.3218818,0.33218 z m -0.3270229,3.9071 h 2.2815254 c 0.186101,0 0.325114,0.14093 0.325114,0.32702 0,0.18611 -0.139013,0.32511 -0.325114,0.32511 H 9.4137812 7.7837566 c -0.1861005,0 -0.3251142,-0.139 -0.3251142,-0.32511 0,-0.18609 0.1390137,-0.32702 0.3251142,-0.32702 z m -0.652137,1.30363 h 2.2821616 c 0.186101,0 0.3244781,0.14093 0.3244781,0.32703 0,0.18609 -0.1383771,0.32448 -0.3244781,0.32448 H 7.1316196 c -0.1861006,0 -0.3244781,-0.13839 -0.3244781,-0.32448 0,-0.1861 0.1383775,-0.32703 0.3244781,-0.32703 z m 0.9791599,1.30364 h 1.3030017 0.9766148 c 0.186101,0 0.324478,0.13838 0.324478,0.32448 0,0.18609 -0.138377,0.32703 -0.324478,0.32703 H 9.5747479 8.1107795 c -0.1860993,0 -0.3270229,-0.14094 -0.3270229,-0.32703 0,-0.1861 0.1409236,-0.32448 0.3270229,-0.32448 z m -2.3375138,0.42692 c 0.041937,-0.005 0.086124,-0.002 0.1310637,0.01 0.1797588,0.0481 0.2803894,0.21854 0.2322242,0.39829 l -0.5910588,2.20455 c -0.030005,0.11203 -0.1099915,0.1861 -0.2080478,0.21885 H 5.1262184 c -0.1655997,-0.0557 -0.2561129,-0.2152 -0.2099563,-0.38746 l 0.5904227,-2.20455 c 0.036123,-0.13481 0.1407695,-0.22356 0.2665809,-0.23922 z m 1.5218653,0.87608 h 2.2796169 c 0.1860993,0 0.3270229,0.13839 0.3270229,0.32448 0,0.1861 -0.1409236,0.32703 -0.3270229,0.32703 H 7.295131 c -0.1861006,0 -0.3244781,-0.14093 -0.3244781,-0.32703 0,-0.18609 0.1383775,-0.32448 0.3244781,-0.32448 z m -0.8315542,0.82774 c 0.1552842,0.25547 0.4225445,0.43255 0.7323022,0.46509 -0.039292,0.10514 -0.064259,0.2172 -0.064259,0.33529 0,0.11511 0.024321,0.22399 0.061714,0.32702 H 6.1562769 c 0.1121903,-0.36641 0.2070228,-0.75263 0.3072999,-1.1274 z m 1.6472027,0.47527 h 1.4639684 0.8156481 c 0.186101,0 0.324478,0.139 0.324478,0.32511 0,0.18609 -0.138377,0.32702 -0.324478,0.32702 H 8.1107795 c -0.1860993,0 -0.3270229,-0.14093 -0.3270229,-0.32702 0,-0.18611 0.1409236,-0.32511 0.3270229,-0.32511 z"
       id="rect1452"
       inkscape:connector-curvature="0"
       sodipodi:nodetypes="cssccccsccccccscccssccccccccccccccccccccccccccccsccssscccccccscccscscsscscsscssscscsscscccccccsscccccssssscccccccccccccccccccccsssscssssssssssscssscsssccccccccccsssssssccscccscssssss" />
  </g>
</svg>
