<svg xmlns="http://www.w3.org/2000/svg" width="64" height="64" viewBox="0 0 64 64" fill="none"> <path d="M22.1017 51.1869C22.3698 51.1422 22.6452 51.1805 22.891 51.2967C25.7136 52.6317 28.8057 53.3333 32 53.3333C43.7821 53.3333 53.3333 43.7821 53.3333 32C53.3333 20.2179 43.7821 10.6667 32 10.6667C20.2179 10.6667 10.6667 20.2179 10.6667 32C10.6667 36.5518 12.0941 40.885 14.7055 44.4932C14.987 44.8822 15.0376 45.3924 14.838 45.8291L11.5888 52.939L22.1017 51.1869ZM9.55253 55.9819C8.49863 56.1575 7.67654 55.0842 8.12063 54.1125L12.0958 45.414C9.44382 41.4869 8 36.8506 8 32C8 18.7452 18.7452 8 32 8C45.2548 8 56 18.7452 56 32C56 45.2548 45.2548 56 32 56C28.5534 56 25.2076 55.2721 22.1348 53.8848L9.55253 55.9819Z" fill="#FE5B0C"></path> </svg> 