<svg xmlns="http://www.w3.org/2000/svg" width="64" height="64" viewBox="0 0 64 64" fill="none"> <path d="M47.4074 52.1481H16.5926V54.5185H47.4074V52.1481Z" fill="#FE5B0C"></path> <path d="M33.1852 16.5926H16.5926V18.963H33.1852V16.5926Z" fill="#FE5B0C"></path> <path d="M47.4074 45.037H16.5926V47.4074H47.4074V45.037Z" fill="#FE5B0C"></path> <path d="M33.1852 9.48151H16.5926V11.8519H33.1852V9.48151Z" fill="#FE5B0C"></path> <path d="M40.2963 0H39.1112H14.2222C11.6147 0 9.48148 2.13327 9.48148 4.74074V59.2593C9.48148 61.8666 11.6147 64 14.2222 64H49.7778C52.3851 64 54.5185 61.8666 54.5185 59.2593V17.7778V16.5927L40.2963 0ZM40.2963 3.55562L51.4371 16.5927H42.6667C41.4815 16.5927 40.2963 15.4076 40.2963 14.2223V3.55562ZM52.1481 59.2593C52.1481 60.4444 51.2 61.6296 49.7778 61.6296H14.2222C13.0371 61.6296 11.8518 60.6815 11.8518 59.2593V4.74074C11.8518 3.55562 12.8 2.37037 14.2222 2.37037H37.9259V14.2222C37.9259 16.8297 40.0593 18.963 42.6667 18.963H52.1481V59.2593Z" fill="#FE5B0C"></path> <path d="M47.4074 37.9259H16.5926V40.2963H47.4074V37.9259Z" fill="#FE5B0C"></path> <path d="M47.4074 23.7037H16.5926V26.074H47.4074V23.7037Z" fill="#FE5B0C"></path> <path d="M47.4074 30.8148H16.5926V33.1852H47.4074V30.8148Z" fill="#FE5B0C"></path> </svg> 