<?xml version="1.0" encoding="UTF-8"?> <svg xmlns="http://www.w3.org/2000/svg" width="101" height="101" viewBox="0 0 101 101" fill="none"> <path d="M79 64.0001C75.9919 64.0021 73.0944 65.1339 70.8812 67.1711C68.668 69.2083 67.3007 72.0025 67.05 75.0001H31.11C30.5953 74.9984 30.0924 74.8457 29.6636 74.561C29.2348 74.2762 28.899 73.8719 28.6978 73.3982C28.4966 72.9244 28.4388 72.4021 28.5317 71.8958C28.6245 71.3895 28.8638 70.9216 29.22 70.5501L73.87 30.6301C74.6664 29.8481 75.2119 28.8467 75.437 27.7535C75.6621 26.6603 75.5566 25.5249 75.1339 24.4919C74.7113 23.4589 73.9907 22.5752 73.0639 21.9533C72.1371 21.3314 71.0461 20.9996 69.93 21.0001H37.93C37.6796 17.958 36.2793 15.1256 34.0141 13.0796C31.749 11.0336 28.7893 9.92762 25.7375 9.98688C22.6857 10.0461 19.7711 11.2662 17.5871 13.3986C15.4031 15.531 14.1139 18.4156 13.9817 21.4651C13.8496 24.5146 14.8845 27.4999 16.8758 29.8133C18.8672 32.1266 21.6652 33.5942 24.7005 33.9172C27.7357 34.2403 30.78 33.3945 33.2136 31.5521C35.6473 29.7097 37.2873 27.0091 37.8 24.0001H69.93C70.4447 24.0017 70.9476 24.1544 71.3764 24.4391C71.8052 24.7239 72.141 25.1282 72.3422 25.6019C72.5434 26.0757 72.6012 26.598 72.5084 27.1043C72.4155 27.6106 72.1762 28.0785 71.82 28.4501L27.17 68.3701C26.3736 69.152 25.8281 70.1534 25.603 71.2466C25.3779 72.3398 25.4834 73.4752 25.9061 74.5082C26.3287 75.5412 27.0493 76.4249 27.9761 77.0468C28.9029 77.6687 29.9939 78.0005 31.11 78.0001H67.18C67.5614 80.2564 68.58 82.3567 70.1158 84.0533C71.6515 85.7498 73.6403 86.9718 75.8477 87.5753C78.0551 88.1788 80.389 88.1385 82.5743 87.4592C84.7595 86.7799 86.705 85.4899 88.1812 83.7414C89.6575 81.9928 90.603 79.8586 90.9063 77.5904C91.2096 75.3222 90.858 73.0146 89.893 70.9396C88.928 68.8647 87.3898 67.1089 85.4597 65.8793C83.5297 64.6498 81.2884 63.9977 79 64.0001V64.0001ZM26 31.0001C24.22 31.0001 22.4799 30.4722 20.9999 29.4833C19.5198 28.4943 18.3663 27.0887 17.6851 25.4442C17.0039 23.7997 16.8257 21.9901 17.1729 20.2442C17.5202 18.4984 18.3774 16.8948 19.636 15.6361C20.8947 14.3774 22.4984 13.5203 24.2442 13.173C25.99 12.8257 27.7996 13.0039 29.4442 13.6851C31.0887 14.3663 32.4943 15.5199 33.4832 16.9999C34.4722 18.48 35 20.22 35 22.0001C35 24.387 34.0518 26.6762 32.364 28.364C30.6761 30.0518 28.387 31.0001 26 31.0001V31.0001ZM79 85.0001C77.22 85.0001 75.4799 84.4722 73.9999 83.4833C72.5198 82.4943 71.3663 81.0887 70.6851 79.4442C70.0039 77.7997 69.8257 75.9901 70.1729 74.2442C70.5202 72.4984 71.3774 70.8948 72.636 69.6361C73.8947 68.3774 75.4984 67.5203 77.2442 67.173C78.99 66.8257 80.7996 67.0039 82.4442 67.6851C84.0887 68.3663 85.4943 69.5199 86.4832 70.9999C87.4722 72.48 88 74.22 88 76.0001C88 78.387 87.0518 80.6762 85.364 82.364C83.6761 84.0518 81.3869 85.0001 79 85.0001V85.0001Z" fill="#FE5B0C"></path> <path d="M83.89 71.7C83.6087 71.4191 83.2275 71.2614 82.83 71.2614C82.4325 71.2614 82.0512 71.4191 81.77 71.7L79.19 74.28L76.6 71.7C76.3156 71.4351 75.9396 71.2908 75.551 71.2977C75.1624 71.3045 74.7916 71.462 74.5168 71.7368C74.2419 72.0116 74.0845 72.3824 74.0776 72.771C74.0708 73.1596 74.215 73.5357 74.48 73.82L77.06 76.4L74.48 79C74.3326 79.1374 74.2144 79.303 74.1324 79.487C74.0505 79.671 74.0064 79.8696 74.0028 80.071C73.9993 80.2724 74.0363 80.4724 74.1118 80.6592C74.1872 80.846 74.2995 81.0157 74.4419 81.1581C74.5844 81.3005 74.754 81.4128 74.9408 81.4883C75.1276 81.5637 75.3276 81.6008 75.529 81.5972C75.7304 81.5937 75.9291 81.5496 76.1131 81.4676C76.2971 81.3856 76.4627 81.2674 76.6 81.12L79.18 78.54L81.76 81.12C82.0411 81.4025 82.4229 81.5617 82.8215 81.5626C83.22 81.5636 83.6025 81.4062 83.885 81.125C84.1675 80.8439 84.3267 80.4621 84.3276 80.0636C84.3285 79.6651 84.1711 79.2825 83.89 79L81.31 76.42L83.89 73.84C84.0321 73.7004 84.145 73.5339 84.222 73.3502C84.2991 73.1665 84.3388 72.9692 84.3388 72.77C84.3388 72.5708 84.2991 72.3736 84.222 72.1899C84.145 72.0062 84.0321 71.8396 83.89 71.7V71.7Z" fill="#FE5B0C"></path> <path d="M26 25.5C27.933 25.5 29.5 23.933 29.5 22C29.5 20.067 27.933 18.5 26 18.5C24.067 18.5 22.5 20.067 22.5 22C22.5 23.933 24.067 25.5 26 25.5Z" fill="#FE5B0C"></path> </svg> 