<svg xmlns="http://www.w3.org/2000/svg" width="64" height="64" viewBox="0 0 64 64" fill="none"> <path d="M57.715 6.72495H47.8325L35.6488 2.74995C34.9171 2.51056 34.1413 2.43728 33.3778 2.53545C32.6143 2.63362 31.8823 2.90077 31.235 3.31745L23.8938 8.0337C23.8145 8.08451 23.7461 8.15042 23.6924 8.22766C23.6387 8.30491 23.6007 8.39199 23.5806 8.48392C23.5605 8.57585 23.5587 8.67083 23.5754 8.76345C23.592 8.85606 23.6267 8.9445 23.6775 9.0237C23.7283 9.10291 23.7942 9.17133 23.8715 9.22506C23.9487 9.27879 24.0358 9.31678 24.1277 9.33686C24.2196 9.35694 24.3146 9.35872 24.4072 9.34209C24.4999 9.32547 24.5883 9.29076 24.6675 9.23995L32.0088 4.52995C32.4776 4.22887 33.0077 4.03627 33.5605 3.9662C34.1132 3.89613 34.6746 3.95037 35.2038 4.12495L47.5 8.12495C47.5714 8.14842 47.6461 8.16024 47.7212 8.15995H57V20.1987H51.6687C51.5374 20.1989 51.4086 20.2351 51.2964 20.3034C51.1842 20.3717 51.0929 20.4696 51.0325 20.5862C50.2295 21.9445 49.003 23.0019 47.5412 23.5962V20.375C48.69 19.885 49.9162 19.0325 50.6987 17.5462C50.7428 17.4628 50.77 17.3716 50.7788 17.2777C50.7877 17.1837 50.7779 17.089 50.7501 16.9989C50.7223 16.9088 50.677 16.825 50.6168 16.7524C50.5567 16.6797 50.4828 16.6197 50.3994 16.5756C50.316 16.5315 50.2247 16.5043 50.1308 16.4955C50.0369 16.4867 49.9422 16.4964 49.8521 16.5242C49.7619 16.552 49.6782 16.5973 49.6055 16.6575C49.5329 16.7177 49.4728 16.7916 49.4287 16.875C48.0662 19.48 44.6787 19.5962 44.66 19.5962C40.1225 19.5962 38.8125 16.4287 38.76 16.2975C38.708 16.1622 38.6163 16.0459 38.4969 15.9638C38.3776 15.8817 38.2361 15.8376 38.0913 15.8375H31.3575C31.1022 15.844 30.8481 15.7993 30.6103 15.7061C30.3724 15.6129 30.1557 15.473 29.9728 15.2947C29.7899 15.1164 29.6445 14.9033 29.5452 14.668C29.446 14.4326 29.3948 14.1798 29.3948 13.9243C29.3948 13.6689 29.446 13.416 29.5452 13.1807C29.6445 12.9453 29.7899 12.7322 29.9728 12.5539C30.1557 12.3756 30.3724 12.2357 30.6103 12.1425C30.8481 12.0493 31.1022 12.0047 31.3575 12.0112H39.395C39.4917 12.0152 39.5881 11.9997 39.6786 11.9655C39.7691 11.9313 39.8518 11.8791 39.9216 11.8122C39.9914 11.7452 40.047 11.6648 40.0849 11.5758C40.1229 11.4868 40.1424 11.3911 40.1424 11.2943C40.1424 11.1976 40.1229 11.1018 40.0849 11.0129C40.047 10.9239 39.9914 10.8435 39.9216 10.7765C39.8518 10.7095 39.7691 10.6574 39.6786 10.6232C39.5881 10.589 39.4917 10.5734 39.395 10.5775H31.3575C30.9125 10.5689 30.4703 10.6491 30.0567 10.8134C29.6431 10.9777 29.2665 11.2229 28.9488 11.5345C28.631 11.8462 28.3787 12.218 28.2064 12.6284C28.0341 13.0387 27.9453 13.4793 27.9453 13.9243C27.9453 14.3694 28.0341 14.8099 28.2064 15.2203C28.3787 15.6306 28.631 16.0025 28.9488 16.3141C29.2665 16.6258 29.6431 16.8709 30.0567 17.0353C30.4703 17.1996 30.9125 17.2798 31.3575 17.2712H37.6425C38.2413 18.37 40.1587 21.03 44.675 21.03C45.1577 21.0086 45.6372 20.942 46.1075 20.8312V31.4562C46.1072 31.7366 45.9956 32.0054 45.7974 32.2036C45.5992 32.4019 45.3304 32.5134 45.05 32.5137H8.05875C7.77871 32.5134 7.51017 32.4022 7.31179 32.2046C7.11342 32.0069 7.00133 31.7387 7 31.4587V13.0687C7.00034 12.7883 7.11186 12.5196 7.3101 12.3213C7.50835 12.1231 7.77714 12.0115 8.0575 12.0112H26.3363C26.4329 12.0152 26.5294 11.9997 26.6199 11.9655C26.7104 11.9313 26.793 11.8791 26.8628 11.8122C26.9327 11.7452 26.9882 11.6648 27.0262 11.5758C27.0641 11.4868 27.0837 11.3911 27.0837 11.2943C27.0837 11.1976 27.0641 11.1018 27.0262 11.0129C26.9882 10.9239 26.9327 10.8435 26.8628 10.7765C26.793 10.7095 26.7104 10.6574 26.6199 10.6232C26.5294 10.589 26.4329 10.5734 26.3363 10.5775H8.05875C7.39874 10.5798 6.76642 10.843 6.29972 11.3097C5.83302 11.7764 5.56981 12.4087 5.5675 13.0687V31.4587C5.56981 32.1187 5.83302 32.751 6.29972 33.2177C6.76642 33.6844 7.39874 33.9476 8.05875 33.95H45.05C45.71 33.9476 46.3423 33.6844 46.809 33.2177C47.2757 32.751 47.5389 32.1187 47.5412 31.4587V25.115C50.1112 24.2962 51.55 22.4425 52.075 21.6312H57.715C57.9051 21.6312 58.0874 21.5558 58.2219 21.4215C58.3564 21.2872 58.4322 21.105 58.4325 20.915V7.44245C58.4325 7.25216 58.3569 7.06966 58.2223 6.9351C58.0878 6.80055 57.9053 6.72495 57.715 6.72495V6.72495Z" fill="#FE5B0C"></path> <path d="M10.4288 26.0412V18.485C11.1829 18.3401 11.8763 17.9723 12.4193 17.4293C12.9623 16.8863 13.3301 16.1929 13.475 15.4388H25.7162C25.9012 15.431 26.076 15.3521 26.2041 15.2185C26.3323 15.0849 26.4038 14.907 26.4038 14.7219C26.4038 14.5368 26.3323 14.3588 26.2041 14.2252C26.076 14.0916 25.9012 14.0127 25.7162 14.005H12.8263C12.636 14.005 12.4535 14.0806 12.3189 14.2152C12.1843 14.3497 12.1088 14.5322 12.1088 14.7225C12.1092 15.0376 12.0476 15.3497 11.9275 15.641C11.8073 15.9323 11.6309 16.1971 11.4084 16.4202C11.1859 16.6433 10.9215 16.8204 10.6306 16.9413C10.3396 17.0623 10.0276 17.1247 9.7125 17.125C9.52415 17.1263 9.34387 17.2016 9.21057 17.3347C9.07727 17.4678 9.00164 17.6479 9 17.8363V26.6912C9 26.7854 9.01857 26.8787 9.05464 26.9656C9.09071 27.0526 9.14358 27.1316 9.21023 27.1982C9.27687 27.2647 9.35598 27.3174 9.44302 27.3533C9.53006 27.3893 9.62334 27.4077 9.7175 27.4075C10.3529 27.4085 10.962 27.6614 11.4113 28.1109C11.8605 28.5603 12.1131 29.1696 12.1138 29.805C12.1138 29.8992 12.1323 29.9924 12.1684 30.0794C12.2045 30.1664 12.2573 30.2454 12.324 30.3119C12.3906 30.3784 12.4697 30.4312 12.5568 30.4671C12.6438 30.503 12.7371 30.5214 12.8313 30.5212H40.2825C40.3767 30.5214 40.4699 30.503 40.557 30.4671C40.644 30.4312 40.7231 30.3784 40.7898 30.3119C40.8564 30.2454 40.9093 30.1664 40.9454 30.0794C40.9814 29.9924 41 29.8992 41 29.805C41.0007 29.1696 41.2533 28.5603 41.7025 28.1109C42.1517 27.6614 42.7608 27.4085 43.3963 27.4075C43.4904 27.4077 43.5837 27.3893 43.6707 27.3533C43.7578 27.3174 43.8369 27.2647 43.9035 27.1982C43.9702 27.1316 44.023 27.0526 44.0591 26.9656C44.0952 26.8787 44.1138 26.7854 44.1138 26.6912V23.4513C44.1178 23.3546 44.1022 23.2581 44.068 23.1676C44.0338 23.0771 43.9817 22.9945 43.9147 22.9247C43.8477 22.8548 43.7673 22.7993 43.6784 22.7613C43.5894 22.7234 43.4936 22.7038 43.3969 22.7038C43.3001 22.7038 43.2044 22.7234 43.1154 22.7613C43.0264 22.7993 42.946 22.8548 42.879 22.9247C42.8121 22.9945 42.7599 23.0771 42.7257 23.1676C42.6915 23.2581 42.676 23.3546 42.68 23.4513V26.0412C41.926 26.1865 41.2328 26.5543 40.6898 27.0973C40.1468 27.6403 39.779 28.3335 39.6338 29.0875H13.475C13.3297 28.3335 12.9619 27.6403 12.4189 27.0973C11.876 26.5543 11.1828 26.1865 10.4288 26.0412V26.0412Z" fill="#FE5B0C"></path> <path d="M25.6125 19.905H27.3375C27.5224 19.8973 27.6973 19.8184 27.8254 19.6848C27.9535 19.5512 28.0251 19.3732 28.0251 19.1881C28.0251 19.003 27.9535 18.8251 27.8254 18.6915C27.6973 18.5579 27.5224 18.479 27.3375 18.4713H26.7738V18.01C26.7778 17.9134 26.7622 17.8169 26.728 17.7264C26.6938 17.6359 26.6417 17.5532 26.5747 17.4834C26.5077 17.4136 26.4273 17.358 26.3384 17.3201C26.2494 17.2821 26.1536 17.2626 26.0569 17.2626C25.9601 17.2626 25.8644 17.2821 25.7754 17.3201C25.6864 17.358 25.606 17.4136 25.539 17.4834C25.4721 17.5532 25.4199 17.6359 25.3857 17.7264C25.3515 17.8169 25.336 17.9134 25.34 18.01V18.4888C24.7507 18.5333 24.2026 18.8078 23.814 19.2531C23.4255 19.6985 23.2278 20.2787 23.2635 20.8686C23.2993 21.4585 23.5658 22.0107 24.0053 22.4057C24.4448 22.8008 25.0221 23.0071 25.6125 22.98H26.5C26.7181 22.98 26.9273 23.0667 27.0816 23.2209C27.2358 23.3752 27.3225 23.5844 27.3225 23.8025C27.3225 24.0207 27.2358 24.2299 27.0816 24.3841C26.9273 24.5384 26.7181 24.625 26.5 24.625H24.7775C24.6808 24.621 24.5844 24.6365 24.4939 24.6707C24.4034 24.7049 24.3207 24.7571 24.2509 24.8241C24.1811 24.891 24.1255 24.9714 24.0876 25.0604C24.0496 25.1494 24.0301 25.2451 24.0301 25.3419C24.0301 25.4386 24.0496 25.5344 24.0876 25.6234C24.1255 25.7124 24.1811 25.7928 24.2509 25.8597C24.3207 25.9267 24.4034 25.9788 24.4939 26.013C24.5844 26.0473 24.6808 26.0628 24.7775 26.0588H25.34V26.52C25.3477 26.705 25.4266 26.8798 25.5602 27.0079C25.6938 27.136 25.8718 27.2076 26.0569 27.2076C26.242 27.2076 26.4199 27.136 26.5535 27.0079C26.6871 26.8798 26.766 26.705 26.7738 26.52V26.0375C27.3636 25.9935 27.9123 25.7191 28.3013 25.2735C28.6903 24.828 28.8882 24.2472 28.8522 23.6569C28.8162 23.0665 28.5492 22.5141 28.109 22.1191C27.6688 21.7241 27.0908 21.5183 26.5 21.5463H25.6125C25.502 21.5506 25.3918 21.5325 25.2885 21.4932C25.1852 21.4539 25.0909 21.3942 25.0112 21.3176C24.9315 21.2409 24.8681 21.149 24.8248 21.0473C24.7815 20.9456 24.7592 20.8362 24.7592 20.7256C24.7592 20.6151 24.7815 20.5057 24.8248 20.404C24.8681 20.3023 24.9315 20.2103 25.0112 20.1337C25.0909 20.0571 25.1852 19.9973 25.2885 19.958C25.3918 19.9187 25.502 19.9007 25.6125 19.905V19.905Z" fill="#FE5B0C"></path> <path d="M18.1538 21.7575C18.0213 21.8904 17.9459 22.0698 17.9438 22.2575C17.9437 22.305 17.9487 22.3523 17.9588 22.3987C17.9675 22.4443 17.9814 22.4887 18 22.5312C18.0172 22.5753 18.0394 22.6173 18.0663 22.6562C18.0916 22.695 18.1209 22.7311 18.1538 22.7637C18.1871 22.7971 18.2235 22.8272 18.2625 22.8537C18.302 22.8794 18.3439 22.9011 18.3875 22.9187C18.4312 22.9368 18.4764 22.951 18.5225 22.9612C18.5687 22.9698 18.6156 22.974 18.6625 22.9737C18.8523 22.9731 19.0342 22.8976 19.1688 22.7637C19.2021 22.7308 19.2322 22.6948 19.2588 22.6562C19.2838 22.6162 19.3059 22.5744 19.325 22.5312C19.3415 22.4881 19.3549 22.4438 19.365 22.3987C19.3747 22.3523 19.3793 22.3049 19.3788 22.2575C19.3777 22.1162 19.3348 21.9783 19.2556 21.8613C19.1764 21.7443 19.0643 21.6533 18.9334 21.5998C18.8026 21.5464 18.6589 21.5328 18.5204 21.5609C18.3819 21.5889 18.2547 21.6573 18.155 21.7575H18.1538Z" fill="#FE5B0C"></path> <path d="M33.8512 22.6625C33.8781 22.7008 33.9082 22.7368 33.9412 22.77C34.0158 22.8452 34.1062 22.9029 34.2059 22.9388C34.3056 22.9748 34.412 22.9881 34.5174 22.9778C34.6228 22.9675 34.7247 22.9339 34.8155 22.8793C34.9063 22.8248 34.9839 22.7507 35.0425 22.6625C35.0694 22.6235 35.0916 22.5816 35.1087 22.5375C35.1274 22.495 35.1412 22.4506 35.15 22.405C35.1599 22.3594 35.1649 22.3129 35.165 22.2662C35.169 22.1696 35.1535 22.0731 35.1193 21.9826C35.0851 21.8921 35.0329 21.8095 34.9659 21.7396C34.899 21.6698 34.8186 21.6143 34.7296 21.5763C34.6406 21.5384 34.5449 21.5188 34.4481 21.5188C34.3514 21.5188 34.2556 21.5384 34.1666 21.5763C34.0777 21.6143 33.9973 21.6698 33.9303 21.7396C33.8633 21.8095 33.8112 21.8921 33.777 21.9826C33.7428 22.0731 33.7272 22.1696 33.7312 22.2662C33.7315 22.3128 33.7361 22.3593 33.745 22.405C33.7549 22.4503 33.7687 22.4946 33.7862 22.5375C33.8045 22.5809 33.8262 22.6227 33.8512 22.6625Z" fill="#FE5B0C"></path> <path d="M51.9388 39.705C51.2696 39.1791 50.4274 38.9235 49.5788 38.9888C48.7303 39.054 47.9371 39.4354 47.3563 40.0575L42.8225 44.9587C42.7541 45.027 42.7002 45.1083 42.664 45.1979C42.6278 45.2876 42.6101 45.3835 42.6119 45.4802C42.6138 45.5768 42.6351 45.672 42.6746 45.7602C42.7142 45.8484 42.7711 45.9277 42.842 45.9933C42.913 46.0589 42.9964 46.1095 43.0874 46.1421C43.1784 46.1747 43.275 46.1885 43.3715 46.1829C43.4679 46.1772 43.5623 46.1521 43.6488 46.1091C43.7353 46.066 43.8123 46.006 43.875 45.9325L48.4087 41.0312C48.7431 40.6728 49.1999 40.4531 49.6887 40.4156C50.1774 40.3781 50.6624 40.5255 51.0475 40.8287C51.2495 40.9891 51.4176 41.1881 51.542 41.414C51.6664 41.64 51.7447 41.8884 51.7723 42.1449C51.7998 42.4013 51.7761 42.6607 51.7026 42.9079C51.629 43.1552 51.507 43.3853 51.3438 43.585L43.4512 53.2375C42.8781 53.9404 42.0616 54.4022 41.1637 54.5312L25.8862 56.7425C25.1102 56.857 24.3709 57.1486 23.7256 57.5947C23.0803 58.0408 22.5463 58.6294 22.165 59.315L21.7475 60.065H7.69375L14.9738 49.3062C16.0155 47.7551 17.4617 46.5185 19.1559 45.7303C20.85 44.9422 22.7275 44.6326 24.585 44.835C25.8169 44.9628 27.0301 45.2308 28.2013 45.6337C28.9969 45.9182 29.8351 46.0653 30.68 46.0687H37.9863C38.5463 46.0694 39.0833 46.2922 39.4793 46.6882C39.8753 47.0842 40.0981 47.6212 40.0988 48.1812C40.0981 48.7857 39.8577 49.3652 39.4302 49.7927C39.0028 50.2201 38.4232 50.4606 37.8187 50.4612H31.125C30.0293 50.461 28.9681 50.844 28.125 51.5437L26.5525 52.8487C26.4118 52.9719 26.3248 53.1452 26.31 53.3316C26.2952 53.518 26.3537 53.7028 26.4732 53.8467C26.5926 53.9906 26.7635 54.0822 26.9495 54.1019C27.1354 54.1217 27.3218 54.0681 27.4688 53.9525L29.04 52.6475C29.6241 52.1633 30.3588 51.8981 31.1175 51.8975H37.8162C38.8008 51.8961 39.7446 51.5044 40.4408 50.8083C41.137 50.1121 41.5287 49.1683 41.53 48.1837C41.5287 47.2436 41.1546 46.3424 40.4899 45.6776C39.8251 45.0128 38.9239 44.6388 37.9837 44.6375H30.68C29.9981 44.6338 29.3218 44.5141 28.68 44.2837C27.4056 43.8429 26.0849 43.5494 24.7437 43.4087C22.6266 43.1769 20.4864 43.5288 18.555 44.4262C16.6235 45.3237 14.9744 46.7324 13.7863 48.5L5.74875 60.375C5.67428 60.4829 5.63081 60.6091 5.62305 60.74C5.6153 60.8709 5.64355 61.0014 5.70475 61.1174C5.76595 61.2333 5.85775 61.3303 5.97019 61.3977C6.08262 61.4652 6.21139 61.5006 6.3425 61.5H22.17C22.2982 61.4991 22.4238 61.4639 22.5338 61.3979C22.6437 61.3319 22.7339 61.2377 22.795 61.125L23.42 60C23.6942 59.5076 24.0779 59.0849 24.5416 58.7646C25.0052 58.4442 25.5363 58.2348 26.0938 58.1525L41.375 55.95C42.6278 55.7699 43.7673 55.1256 44.5675 54.145L52.46 44.4925C52.7443 44.1459 52.9568 43.7462 53.0849 43.3167C53.2131 42.8872 53.2544 42.4364 53.2065 41.9907C53.1585 41.545 53.0223 41.1134 52.8057 40.7209C52.5891 40.3285 52.2965 39.9831 51.945 39.705H51.9388Z" fill="#FE5B0C"></path> </svg> 