<svg xmlns="http://www.w3.org/2000/svg" viewBox="0 0 32 32"><g id="_27_phone-call" data-name="27 phone-call"><path d="M21.83,29a5.46,5.46,0,0,1-.58,0A18.5,18.5,0,0,1,8.53,23.47,18.62,18.62,0,0,1,3.05,10.66a4.91,4.91,0,0,1,0-1A5.55,5.55,0,0,1,4.68,6.21a5.61,5.61,0,0,1,4-1.65,5.43,5.43,0,0,1,1.22.14l.66.15,1.34,8.46a2,2,0,0,1-1.25,2.18,4.75,4.75,0,0,1-.57.18,13.07,13.07,0,0,0,2.59,3.67,12.74,12.74,0,0,0,3.68,2.58,3.86,3.86,0,0,1,.17-.55,2,2,0,0,1,2.18-1.26l8.46,1.33.15.67a5.43,5.43,0,0,1,.13,1.22A5.67,5.67,0,0,1,22.34,29ZM8.67,6.56A3.65,3.65,0,0,0,5,9.86a4,4,0,0,0,0,.7A16.71,16.71,0,0,0,21.38,27a4.21,4.21,0,0,0,.79,0,3.59,3.59,0,0,0,2.2-1.05,3.55,3.55,0,0,0,1.06-2.57V23.2l-7-1.12a2.72,2.72,0,0,0-.11.34,2,2,0,0,1-1.08,1.31,2,2,0,0,1-1.69,0A14.93,14.93,0,0,1,8.26,16.5a2,2,0,0,1,0-1.69,2,2,0,0,1,1.3-1.08l.36-.11-1.13-7Z"/><path d="M29,16H27A11,11,0,0,0,16,5V3A13,13,0,0,1,29,16Z"/><path d="M23,16H21a5,5,0,0,0-5-5V9A7,7,0,0,1,23,16Z"/></g></svg>