<svg xmlns="http://www.w3.org/2000/svg" width="64" height="64" viewBox="0 0 64 64" fill="none"> <path d="M40.616 12L30.3493 24.0934C30.1726 24.3014 29.9362 24.4501 29.6722 24.5195C29.4082 24.5889 29.1293 24.5755 28.8731 24.4813C28.6169 24.3871 28.3958 24.2165 28.2397 23.9926C28.0836 23.7688 27.9999 23.5023 28 23.2294V10.6667C28 10.3131 28.1405 9.97395 28.3905 9.7239C28.6406 9.47385 28.9797 9.33337 29.3333 9.33337C29.687 9.33337 30.0261 9.47385 30.2761 9.7239C30.5262 9.97395 30.6667 10.3131 30.6667 10.6667V19.6L38.984 9.80271C39.1092 9.65552 39.2649 9.53732 39.4404 9.45628C39.6158 9.37524 39.8068 9.3333 40 9.33337H53.3333C53.687 9.33337 54.0261 9.47385 54.2761 9.7239C54.5262 9.97395 54.6667 10.3131 54.6667 10.6667V53.3334C54.6667 53.687 54.5262 54.0261 54.2761 54.2762C54.0261 54.5262 53.687 54.6667 53.3333 54.6667H10.6667C10.313 54.6667 9.97391 54.5262 9.72386 54.2762C9.47381 54.0261 9.33334 53.687 9.33334 53.3334V45.3334C9.33297 45.0193 9.44346 44.7153 9.64534 44.4747L17.3333 35.328V18.776C17.3333 18.4224 17.4738 18.0833 17.7239 17.8332C17.9739 17.5832 18.313 17.4427 18.6667 17.4427H24C24.3536 17.4427 24.6928 17.5832 24.9428 17.8332C25.1929 18.0833 25.3333 18.4224 25.3333 18.776V29.5654C25.3333 29.919 25.1929 30.2581 24.9428 30.5082C24.6928 30.7582 24.3536 30.8987 24 30.8987C23.6464 30.8987 23.3072 30.7582 23.0572 30.5082C22.8071 30.2581 22.6667 29.919 22.6667 29.5654V20.1067H20V35.8134C19.9997 36.1265 19.8893 36.4295 19.688 36.6694L12 45.8187V52H52V12H40.616ZM44 20V44H46.6667V20H44ZM44 17.3334H46.6667C47.3739 17.3334 48.0522 17.6143 48.5523 18.1144C49.0524 18.6145 49.3333 19.2928 49.3333 20V44C49.3333 44.7073 49.0524 45.3856 48.5523 45.8857C48.0522 46.3858 47.3739 46.6667 46.6667 46.6667H44C43.2928 46.6667 42.6145 46.3858 42.1144 45.8857C41.6143 45.3856 41.3333 44.7073 41.3333 44V20C41.3333 19.2928 41.6143 18.6145 42.1144 18.1144C42.6145 17.6143 43.2928 17.3334 44 17.3334V17.3334ZM33.3333 30.6667V44H36V30.6667H33.3333ZM33.3333 28H36C36.7072 28 37.3855 28.281 37.8856 28.7811C38.3857 29.2812 38.6667 29.9595 38.6667 30.6667V44C38.6667 44.7073 38.3857 45.3856 37.8856 45.8857C37.3855 46.3858 36.7072 46.6667 36 46.6667H33.3333C32.6261 46.6667 31.9478 46.3858 31.4477 45.8857C30.9476 45.3856 30.6667 44.7073 30.6667 44V30.6667C30.6667 29.9595 30.9476 29.2812 31.4477 28.7811C31.9478 28.281 32.6261 28 33.3333 28V28Z" fill="#FE5B0C"></path> </svg> 