<svg xmlns="http://www.w3.org/2000/svg" width="64" height="64" viewBox="0 0 64 64" fill="none"> <path d="M33.024 25.6C32.7467 25.6086 32.48 25.7238 32.2837 25.9243L26.656 31.535L23.1893 28.079C22.2187 27.0678 20.6507 28.6294 21.664 29.5979L25.8944 33.8177C26.3147 34.2379 26.9973 34.2379 27.4197 33.8177L33.8091 27.4454C34.5131 26.7627 33.9947 25.6 33.0261 25.6H33.024ZM1.06667 34.1334H7.46667C8.0576 34.1334 8.53333 34.6091 8.53333 35.2C8.53333 35.791 8.0576 36.2667 7.46667 36.2667H1.06667C0.475733 36.2667 0 35.791 0 35.2C0 34.6091 0.475733 34.1334 1.06667 34.1334ZM1.06667 25.6H7.46667C8.0576 25.6 8.53333 26.0758 8.53333 26.6667C8.53333 27.2576 8.0576 27.7334 7.46667 27.7334H1.06667C0.475733 27.7334 0 27.2576 0 26.6667C0 26.0758 0.475733 25.6 1.06667 25.6ZM1.06667 17.0667H7.46667C8.0576 17.0667 8.53333 17.5424 8.53333 18.1334C8.53333 18.7243 8.0576 19.2 7.46667 19.2H1.06667C0.475733 19.2 0 18.7243 0 18.1334C0 17.5424 0.475733 17.0667 1.06667 17.0667ZM52.2667 40.5334C49.3333 40.5334 46.9333 42.9334 46.9333 45.8667C46.9333 48.8001 49.3333 51.2001 52.2667 51.2001C55.2 51.2001 57.6 48.8001 57.6 45.8667C57.6 42.9334 55.2 40.5334 52.2667 40.5334ZM52.2667 42.6667C54.0459 42.6667 55.4667 44.0875 55.4667 45.8667C55.4667 47.6459 54.0459 49.0667 52.2667 49.0667C50.4875 49.0667 49.0667 47.6459 49.0667 45.8667C49.0667 44.0875 50.4875 42.6667 52.2667 42.6667ZM24.5333 40.5334C21.6 40.5334 19.2 42.9334 19.2 45.8667C19.2 48.8001 21.6 51.2001 24.5333 51.2001C27.4667 51.2001 29.8667 48.8001 29.8667 45.8667C29.8667 42.9334 27.4667 40.5334 24.5333 40.5334ZM24.5333 42.6667C26.3125 42.6667 27.7333 44.0875 27.7333 45.8667C27.7333 47.6459 26.3125 49.0667 24.5333 49.0667C22.7541 49.0667 21.3333 47.6459 21.3333 45.8667C21.3333 44.0875 22.7541 42.6667 24.5333 42.6667ZM13.8667 12.8C12.1131 12.8 10.6667 14.2464 10.6667 16V39.4667C10.6667 41.2203 12.1131 42.6667 13.8667 42.6667H18.1333C19.5755 42.6881 19.5755 40.5121 18.1333 40.5334H13.8667C13.2565 40.5334 12.8 40.0769 12.8 39.4667V16C12.8 15.3899 13.2565 14.9334 13.8667 14.9334H41.6C42.2101 14.9334 42.6667 15.3899 42.6667 16V40.5334H30.9333C29.5253 40.5334 29.5509 42.6881 30.9333 42.6667H45.8667C47.2747 42.6667 47.2619 40.5334 45.8667 40.5334H44.8V21.3334H53.8176L61.8667 33.9115V39.4667C61.8667 40.0769 61.4101 40.5334 60.8 40.5334H58.6667C57.2715 40.5334 57.2715 42.6667 58.6667 42.6667H60.8C62.5536 42.6667 64 41.2203 64 39.4667V33.6C64 33.3974 63.9424 33.1947 63.8336 33.024L55.3003 19.6907C55.104 19.3856 54.7669 19.2 54.4 19.2H44.8V16C44.8 14.2464 43.3536 12.8 41.6 12.8H13.8667Z" fill="#FE5B0C"></path> </svg> 