<?xml version="1.0" encoding="UTF-8"?> <svg xmlns="http://www.w3.org/2000/svg" width="64" height="64" viewBox="0 0 64 64" fill="none"> <g clip-path="url(#clip0_453_22)"> <path d="M34.84 4.71C34.9876 4.70987 35.1318 4.66561 35.2541 4.58289C35.3763 4.50018 35.4711 4.38279 35.5261 4.24581C35.5811 4.10884 35.5939 3.95854 35.5628 3.81424C35.5317 3.66993 35.4582 3.53822 35.3517 3.43603C35.2452 3.33383 35.1106 3.26583 34.9651 3.24075C34.8196 3.21568 34.67 3.23468 34.5354 3.29532C34.4008 3.35595 34.2875 3.45545 34.2099 3.58102C34.1323 3.7066 34.094 3.85251 34.1 4C34.1078 4.19101 34.1891 4.37161 34.3271 4.50397C34.465 4.63632 34.6488 4.71015 34.84 4.71V4.71Z" fill="#FE5B0C"></path> <path d="M28.9 4.71C29.0963 4.71 29.2845 4.63203 29.4233 4.49325C29.562 4.35448 29.64 4.16626 29.64 3.97C29.64 3.77374 29.562 3.58551 29.4233 3.44674C29.2845 3.30796 29.0963 3.23 28.9 3.23C28.7037 3.23 28.5155 3.30796 28.3767 3.44674C28.238 3.58551 28.16 3.77374 28.16 3.97C28.16 4.16626 28.238 4.35448 28.3767 4.49325C28.5155 4.63203 28.7037 4.71 28.9 4.71V4.71Z" fill="#FE5B0C"></path> <path d="M32 5C32.5523 5 33 4.55228 33 4C33 3.44772 32.5523 3 32 3C31.4477 3 31 3.44772 31 4C31 4.55228 31.4477 5 32 5Z" fill="#FE5B0C"></path> <path d="M36 64C41.55 64 47 59.54 47 55V47.11C47.0035 46.4315 46.7843 45.7707 46.3761 45.2288C45.9678 44.6868 45.3931 44.2938 44.74 44.11V4C44.74 2.93913 44.3186 1.92172 43.5684 1.17157C42.8183 0.421427 41.8009 0 40.74 0L23 0C21.9391 0 20.9217 0.421427 20.1716 1.17157C19.4214 1.92172 19 2.93913 19 4V6.68C18.7348 6.68 18.4804 6.78536 18.2929 6.97289C18.1054 7.16043 18 7.41478 18 7.68V10.68C18 10.9452 18.1054 11.1996 18.2929 11.3871C18.4804 11.5746 18.7348 11.68 19 11.68V12.68C18.7348 12.68 18.4804 12.7854 18.2929 12.9729C18.1054 13.1604 18 13.4148 18 13.68V16.68C18 16.9452 18.1054 17.1996 18.2929 17.3871C18.4804 17.5746 18.7348 17.68 19 17.68V44C19 45.0609 19.4214 46.0783 20.1716 46.8284C20.9217 47.5786 21.9391 48 23 48H25V55C25 59.54 30.45 64 36 64ZM45 47.11V55C45 58.47 40.46 62 36 62C31.54 62 27 58.47 27 55V42.17C27.5852 42.3769 28.0917 42.7602 28.4499 43.267C28.8081 43.7739 29.0003 44.3793 29 45V53C29 53.2652 29.1054 53.5196 29.2929 53.7071C29.4804 53.8946 29.7348 54 30 54C30.2652 54 30.5196 53.8946 30.7071 53.7071C30.8946 53.5196 31 53.2652 31 53V29C31 28.8556 31.0313 28.7128 31.0917 28.5816C31.1521 28.4504 31.2402 28.3339 31.35 28.24C31.4613 28.1437 31.5925 28.0731 31.7343 28.0333C31.876 27.9936 32.0248 27.9856 32.17 28.01C32.4139 28.0697 32.6297 28.2118 32.7809 28.4122C32.9321 28.6126 33.0095 28.8591 33 29.11V41.47C32.9975 41.7299 33.0747 41.9843 33.2214 42.1989C33.368 42.4135 33.577 42.5779 33.82 42.67C34.0661 42.7665 34.3358 42.7856 34.5931 42.7248C34.8504 42.6641 35.083 42.5264 35.26 42.33C35.3724 42.2043 35.5148 42.109 35.6739 42.053C35.833 41.9971 36.0036 41.9823 36.17 42.01C36.4139 42.0697 36.6297 42.2118 36.7809 42.4122C36.9321 42.6126 37.0095 42.8591 37 43.11V45C37 45.2652 37.1054 45.5196 37.2929 45.7071C37.4804 45.8946 37.7348 46 38 46C38.2652 46 38.5196 45.8946 38.7071 45.7071C38.8946 45.5196 39 45.2652 39 45C38.9979 44.8531 39.0281 44.7075 39.0886 44.5736C39.1492 44.4397 39.2385 44.3207 39.3502 44.2253C39.4619 44.1298 39.5933 44.0601 39.735 44.0212C39.8767 43.9822 40.0252 43.975 40.17 44C40.4139 44.0597 40.6297 44.2018 40.7809 44.4022C40.9321 44.6026 41.0095 44.8491 41 45.1V47C41 47.2652 41.1054 47.5196 41.2929 47.7071C41.4804 47.8946 41.7348 48 42 48C42.2652 48 42.5196 47.8946 42.7071 47.7071C42.8946 47.5196 43 47.2652 43 47C43.0056 46.9074 43.0259 46.8163 43.06 46.73C43.0811 46.6454 43.1148 46.5645 43.16 46.49C43.2021 46.4208 43.2525 46.357 43.31 46.3L43.44 46.19L43.62 46.09L43.77 46.03C43.9021 46.0049 44.0379 46.0049 44.17 46.03C44.4104 46.089 44.6236 46.2281 44.7745 46.4244C44.9253 46.6207 45.0049 46.8625 45 47.11V47.11ZM23 2H40.8C41.2332 2.00618 41.6526 2.15286 41.9953 2.41796C42.3379 2.68306 42.5852 3.05225 42.7 3.47H40.8C40.3001 3.47271 39.8071 3.58727 39.3572 3.8053C38.9073 4.02332 38.5119 4.33928 38.2 4.73C37.9842 5.02955 37.7024 5.27551 37.3764 5.4489C37.0505 5.62229 36.689 5.71846 36.32 5.73H27.42C27.0524 5.71845 26.6924 5.6222 26.368 5.44875C26.0437 5.27531 25.7637 5.02934 25.55 4.73C25.243 4.34627 24.8555 4.03457 24.4149 3.81687C23.9743 3.59916 23.4913 3.48076 23 3.47H21.1C21.2148 3.05225 21.4621 2.68306 21.8047 2.41796C22.1474 2.15286 22.5668 2.00618 23 2V2ZM23 46C22.4696 46 21.9609 45.7893 21.5858 45.4142C21.2107 45.0391 21 44.5304 21 44V4.47H23C23.3675 4.48231 23.7272 4.57888 24.0514 4.75226C24.3757 4.92565 24.6557 5.17121 24.87 5.47C25.1802 5.85758 25.5725 6.1716 26.0186 6.38946C26.4647 6.60733 26.9536 6.72363 27.45 6.73H36.35C36.8445 6.71443 37.3295 6.58983 37.7703 6.36511C38.2112 6.14038 38.5969 5.82108 38.9 5.43C39.1143 5.13121 39.3943 4.88565 39.7186 4.71226C40.0428 4.53888 40.4025 4.44231 40.77 4.43H42.77V43.85C42.682 43.6418 42.5713 43.444 42.44 43.26L42.37 43.17C42.239 43.0024 42.0916 42.8483 41.93 42.71L41.84 42.63C41.6654 42.4979 41.4777 42.384 41.28 42.29H41.2C40.9884 42.1982 40.767 42.1311 40.54 42.09C39.9905 41.9975 39.4261 42.0598 38.91 42.27C38.7753 41.6969 38.475 41.1761 38.0465 40.7725C37.6179 40.3688 37.0801 40.1002 36.5 40C35.9968 39.9218 35.4822 39.9664 35 40.13V29.11C35.0181 28.3798 34.777 27.6667 34.3193 27.0974C33.8616 26.528 33.2171 26.1393 32.5 26C32.0663 25.9266 31.6218 25.9496 31.198 26.0671C30.7741 26.1847 30.3813 26.394 30.0473 26.6802C29.7134 26.9665 29.4464 27.3226 29.2655 27.7235C29.0845 28.1244 28.9938 28.5602 29 29V41C28.1345 40.3509 27.0819 40 26 40C25.7348 40 25.4804 40.1054 25.2929 40.2929C25.1054 40.4804 25 40.7348 25 41V46H23Z" fill="#FE5B0C"></path> <path d="M37 29.5C37.1326 29.5 37.2598 29.4473 37.3536 29.3536C37.4473 29.2598 37.5 29.1326 37.5 29C37.5 27.5413 36.9205 26.1424 35.8891 25.1109C34.8576 24.0795 33.4587 23.5 32 23.5C30.5413 23.5 29.1424 24.0795 28.1109 25.1109C27.0795 26.1424 26.5 27.5413 26.5 29C26.5 29.1326 26.5527 29.2598 26.6464 29.3536C26.7402 29.4473 26.8674 29.5 27 29.5C27.1326 29.5 27.2598 29.4473 27.3536 29.3536C27.4473 29.2598 27.5 29.1326 27.5 29C27.5 27.8065 27.9741 26.6619 28.818 25.818C29.6619 24.9741 30.8065 24.5 32 24.5C33.1935 24.5 34.3381 24.9741 35.182 25.818C36.0259 26.6619 36.5 27.8065 36.5 29C36.5 29.1326 36.5527 29.2598 36.6464 29.3536C36.7402 29.4473 36.8674 29.5 37 29.5Z" fill="#FE5B0C"></path> <path d="M26.69 35.64C26.7936 35.7217 26.9254 35.7592 27.0565 35.7442C27.1876 35.7292 27.3075 35.663 27.39 35.56C27.4723 35.4548 27.5101 35.3214 27.4951 35.1886C27.4802 35.0559 27.4137 34.9343 27.31 34.85C26.0976 33.8785 25.2169 32.5545 24.7895 31.0608C24.362 29.5672 24.409 27.9777 24.9238 26.5119C25.4387 25.0461 26.396 23.7763 27.6636 22.878C28.9312 21.9798 30.4464 21.4973 32 21.4973C33.5536 21.4973 35.0688 21.9798 36.3364 22.878C37.604 23.7763 38.5613 25.0461 39.0762 26.5119C39.591 27.9777 39.638 29.5672 39.2105 31.0608C38.7831 32.5545 37.9024 33.8785 36.69 34.85C36.5852 34.9322 36.5174 35.0527 36.5015 35.1849C36.4856 35.3171 36.5228 35.4502 36.605 35.555C36.6872 35.6598 36.8077 35.7276 36.9399 35.7435C37.0721 35.7594 37.2052 35.7222 37.31 35.64C38.6853 34.5397 39.6849 33.0393 40.1705 31.3463C40.6562 29.6532 40.6038 27.8511 40.0208 26.1891C39.4378 24.527 38.3529 23.0872 36.916 22.0685C35.4791 21.0498 33.7613 20.5027 32 20.5027C30.2387 20.5027 28.5209 21.0498 27.084 22.0685C25.6471 23.0872 24.5622 24.527 23.9792 26.1891C23.3962 27.8511 23.3438 29.6532 23.8295 31.3463C24.3151 33.0393 25.3147 34.5397 26.69 35.64Z" fill="#FE5B0C"></path> </g> <defs> <clipPath id="clip0_453_22"> <rect width="64" height="64" fill="white"></rect> </clipPath> </defs> </svg> 