<?xml version="1.0" encoding="UTF-8"?> <svg xmlns="http://www.w3.org/2000/svg" width="100" height="100" viewBox="0 0 100 100" fill="none"> <path d="M67 22.35C69.2447 22.3736 71.3938 23.2619 73 24.83C73.8103 25.6077 74.4582 26.5385 74.9062 27.5685C75.3542 28.5984 75.5935 29.707 75.61 30.83C75.6384 31.2535 75.8155 31.6534 76.1101 31.9589C76.4047 32.2645 76.7978 32.4561 77.22 32.5C77.4178 32.5013 77.614 32.4635 77.7971 32.3887C77.9802 32.3139 78.1468 32.2036 78.2871 32.0642C78.4275 31.9248 78.5389 31.759 78.6149 31.5763C78.6909 31.3937 78.73 31.1978 78.73 31C78.6623 28.8029 79.4648 26.6679 80.9629 25.0593C82.461 23.4507 84.5336 22.4986 86.73 22.41H87C87.3978 22.41 87.7794 22.252 88.0607 21.9707C88.342 21.6894 88.5 21.3078 88.5 20.91C88.5 20.5122 88.342 20.1306 88.0607 19.8493C87.7794 19.568 87.3978 19.41 87 19.41H86.9C85.8432 19.4084 84.7975 19.1942 83.8251 18.7801C82.8528 18.3661 81.9736 17.7607 81.24 17C79.8055 15.5316 78.9436 13.5985 78.81 11.55C78.81 11.43 78.81 11.31 78.81 11.18C78.808 11.034 78.7844 10.8891 78.74 10.75C78.6815 10.4037 78.5033 10.0889 78.2365 9.86044C77.9697 9.63202 77.6312 9.50446 77.28 9.5V9.5C76.8822 9.5 76.5006 9.65804 76.2193 9.93934C75.938 10.2206 75.78 10.6022 75.78 11C75.78 11.18 75.78 11.36 75.78 11.55C75.6168 13.6983 74.6362 15.7023 73.0402 17.1495C71.4441 18.5968 69.354 19.3771 67.2 19.33H67C66.803 19.3326 66.6085 19.374 66.4275 19.4518C66.2465 19.5296 66.0826 19.6423 65.9452 19.7834C65.8077 19.9246 65.6994 20.0914 65.6265 20.2744C65.5535 20.4574 65.5174 20.653 65.52 20.85C65.525 21.2428 65.682 21.6184 65.9579 21.8981C66.2338 22.1777 66.6073 22.3397 67 22.35V22.35ZM77.31 16.7C77.8003 17.5711 78.402 18.3745 79.1 19.09C79.7855 19.7842 80.5587 20.386 81.4 20.88C79.5949 21.9428 78.1174 23.4825 77.13 25.33C76.5892 24.3614 75.9161 23.4728 75.13 22.69C74.426 22.0328 73.6434 21.4651 72.8 21C74.6707 20.0095 76.2315 18.5214 77.31 16.7V16.7Z" fill="#FE5B0C"></path> <path d="M53.41 66C50.0507 65.8814 46.8019 64.7696 44.0744 62.805C41.3468 60.8405 39.2629 58.1114 38.0859 54.9628C36.909 51.8141 36.692 48.3872 37.4622 45.1153C38.2324 41.8433 39.9554 38.8731 42.4132 36.5801C44.8711 34.2871 47.9536 32.7742 51.2711 32.2327C54.5886 31.6911 57.9922 32.1453 61.0517 33.5376C64.1112 34.93 66.6892 37.1981 68.4599 40.0553C70.2306 42.9125 71.1146 46.2306 71 49.59C70.9933 49.787 71.0255 49.9834 71.0948 50.168C71.1641 50.3525 71.2691 50.5216 71.4037 50.6656C71.5384 50.8095 71.7001 50.9255 71.8797 51.0069C72.0592 51.0883 72.253 51.1336 72.45 51.14C72.6468 51.1494 72.8436 51.1194 73.0287 51.0517C73.2138 50.9841 73.3835 50.8801 73.5278 50.746C73.6722 50.6119 73.7883 50.4502 73.8694 50.2706C73.9505 50.091 73.9949 49.897 74 49.7C74.136 45.7473 73.097 41.8431 71.0144 38.4808C68.9318 35.1185 65.899 32.4492 62.2995 30.8103C58.7001 29.1714 54.6955 28.6365 50.792 29.2732C46.8886 29.9099 43.2616 31.6897 40.3695 34.3875C37.4774 37.0853 35.4501 40.58 34.5439 44.4298C33.6377 48.2796 33.8933 52.3116 35.2783 56.0162C36.6633 59.7208 39.1156 62.9316 42.3252 65.2426C45.5347 67.5537 49.3574 68.8612 53.31 69H53.36C53.7578 69.0067 54.142 68.855 54.428 68.5784C54.714 68.3017 54.8784 67.9229 54.885 67.525C54.8916 67.1272 54.74 66.743 54.4633 66.457C54.1867 66.171 53.8078 66.0067 53.41 66V66Z" fill="#FE5B0C"></path> <path d="M24 31C25.9778 31 27.9112 30.4135 29.5557 29.3147C31.2002 28.2159 32.4819 26.6541 33.2388 24.8268C33.9957 22.9996 34.1937 20.9889 33.8079 19.0491C33.422 17.1093 32.4696 15.3275 31.0711 13.9289C29.6725 12.5304 27.8907 11.578 25.9509 11.1922C24.0111 10.8063 22.0004 11.0043 20.1732 11.7612C18.3459 12.5181 16.7841 13.7998 15.6853 15.4443C14.5865 17.0888 14 19.0222 14 21C14 23.6522 15.0536 26.1957 16.9289 28.0711C18.8043 29.9464 21.3478 31 24 31V31ZM24 14C25.3845 14 26.7378 14.4105 27.889 15.1797C29.0401 15.9489 29.9373 17.0421 30.4672 18.3212C30.997 19.6003 31.1356 21.0078 30.8655 22.3656C30.5954 23.7235 29.9287 24.9708 28.9497 25.9498C27.9708 26.9287 26.7235 27.5954 25.3656 27.8655C24.0078 28.1356 22.6003 27.997 21.3212 27.4672C20.0421 26.9373 18.9489 26.0401 18.1797 24.889C17.4105 23.7379 17 22.3845 17 21C17 19.1435 17.7375 17.363 19.0503 16.0503C20.363 14.7375 22.1435 14 24 14V14Z" fill="#FE5B0C"></path> <path d="M75.08 55C70.7039 54.8475 66.4465 56.4397 63.2443 59.4262C60.0421 62.4127 58.1575 66.5489 58.005 70.925C57.8525 75.3011 59.4446 79.5585 62.4311 82.7607C65.4177 85.9629 69.5539 87.8475 73.93 88H74.51C78.8861 88.0756 83.1129 86.4097 86.2607 83.3688C89.4085 80.3279 91.2194 76.1611 91.295 71.785C91.3706 67.4089 89.7047 63.1821 86.6638 60.0343C83.6229 56.8865 79.4561 55.0756 75.08 55V55ZM83.71 81.36C82.1024 82.8634 80.1516 83.951 78.0276 84.5279C75.9035 85.1049 73.6706 85.1538 71.5233 84.6703C69.3761 84.1868 67.3796 83.1856 65.7078 81.754C64.036 80.3223 62.7396 78.5036 61.9315 76.4563C61.1234 74.4089 60.8282 72.1951 61.0716 70.0075C61.3149 67.82 62.0894 65.7251 63.3276 63.9054C64.5658 62.0857 66.2302 60.5964 68.1757 59.5671C70.1213 58.5378 72.289 57.9998 74.49 58H75C77.6698 58.0914 80.2525 58.9729 82.4212 60.5328C84.5898 62.0928 86.2469 64.2611 87.1826 66.7632C88.1184 69.2654 88.2908 71.9889 87.678 74.5891C87.0651 77.1892 85.6946 79.5491 83.74 81.37L83.71 81.36Z" fill="#FE5B0C"></path> <path d="M18 46C15.4288 46 12.9154 46.7624 10.7776 48.1909C8.63975 49.6194 6.97351 51.6497 5.98957 54.0251C5.00563 56.4006 4.74819 59.0144 5.2498 61.5362C5.75141 64.0579 6.98953 66.3743 8.80762 68.1924C10.6257 70.0105 12.9421 71.2486 15.4638 71.7502C17.9856 72.2518 20.5995 71.9944 22.9749 71.0104C25.3503 70.0265 27.3807 68.3603 28.8091 66.2224C30.2376 64.0846 31 61.5712 31 59C31 55.5522 29.6304 52.2456 27.1924 49.8076C24.7544 47.3696 21.4478 46 18 46V46ZM18 69C16.0222 69 14.0888 68.4135 12.4443 67.3147C10.7998 66.2159 9.51809 64.6541 8.76121 62.8268C8.00433 60.9996 7.8063 58.9889 8.19215 57.0491C8.57801 55.1093 9.53041 53.3275 10.9289 51.9289C12.3275 50.5304 14.1093 49.578 16.0491 49.1921C17.9889 48.8063 19.9996 49.0043 21.8268 49.7612C23.6541 50.5181 25.2159 51.7998 26.3147 53.4443C27.4135 55.0888 28 57.0222 28 59C28 60.3132 27.7413 61.6136 27.2388 62.8268C26.7363 64.0401 25.9997 65.1425 25.0711 66.0711C24.1425 66.9997 23.0401 67.7362 21.8268 68.2388C20.6136 68.7413 19.3132 69 18 69Z" fill="#FE5B0C"></path> <path d="M46.5 82.42H46.42C44.962 82.4161 43.5643 81.8376 42.53 80.81C41.4754 79.7693 40.8386 78.3783 40.74 76.9C40.74 76.81 40.74 76.72 40.74 76.63C40.7251 76.2193 40.5619 75.8278 40.2806 75.5281C39.9993 75.2285 39.619 75.0408 39.21 75V75C38.8139 75.0053 38.436 75.167 38.1587 75.4499C37.8814 75.7328 37.7273 76.1139 37.73 76.51C37.73 76.65 37.73 76.78 37.73 76.91C37.61 80.25 34.54 82.35 31.67 82.38H31.48C31.283 82.3826 31.0885 82.424 30.9075 82.5018C30.7265 82.5796 30.5626 82.6923 30.4252 82.8334C30.2877 82.9746 30.1794 83.1414 30.1065 83.3244C30.0335 83.5074 29.9974 83.703 30 83.9C30.0013 84.0974 30.0418 84.2925 30.1191 84.4741C30.1964 84.6557 30.3091 84.8202 30.4505 84.9578C30.5919 85.0955 30.7593 85.2038 30.9429 85.2762C31.1265 85.3487 31.3227 85.384 31.52 85.38C32.305 85.3789 33.0823 85.534 33.8068 85.8361C34.5313 86.1383 35.1884 86.5815 35.74 87.14C36.3124 87.688 36.7706 88.3439 37.0881 89.0699C37.4057 89.796 37.5762 90.5777 37.59 91.37C37.6105 91.7872 37.7822 92.1827 38.0729 92.4827C38.3636 92.7826 38.7536 92.9665 39.17 93V93C39.5661 92.9947 39.944 92.833 40.2213 92.5501C40.4986 92.2672 40.6527 91.8861 40.65 91.49C40.6014 89.937 41.1694 88.4279 42.2299 87.2924C43.2905 86.157 44.7573 85.4874 46.31 85.43H46.5C46.8978 85.43 47.2794 85.272 47.5607 84.9907C47.842 84.7094 48 84.3278 48 83.93C48 83.5322 47.842 83.1506 47.5607 82.8693C47.2794 82.588 46.8978 82.43 46.5 82.43V82.42ZM39.09 86.51C38.7271 85.9645 38.3082 85.4584 37.84 85C37.4497 84.6309 37.0281 84.2963 36.58 84C37.6226 83.3619 38.5242 82.518 39.23 81.52C39.5765 82.0544 39.9788 82.5505 40.43 83C40.7901 83.3668 41.1816 83.7014 41.6 84C40.6028 84.6632 39.7492 85.5202 39.09 86.52V86.51Z" fill="#FE5B0C"></path> <path d="M54.55 36C47.86 35.76 42.25 41.35 42 48.44C41.992 48.6378 42.0232 48.8353 42.0919 49.021C42.1605 49.2067 42.2653 49.377 42.4001 49.522C42.5349 49.667 42.697 49.7839 42.8772 49.866C43.0574 49.948 43.2521 49.9936 43.45 50H43.5C43.8893 50.0002 44.2635 49.8491 44.5434 49.5785C44.8233 49.3079 44.987 48.9391 45 48.55C45.19 43.11 49.43 38.88 54.45 39C54.6468 39.0094 54.8436 38.9794 55.0287 38.9117C55.2137 38.844 55.3835 38.7401 55.5278 38.606C55.6722 38.4718 55.7883 38.3102 55.8694 38.1306C55.9505 37.951 55.9949 37.757 56 37.56C56.008 37.3622 55.9768 37.1647 55.9081 36.979C55.8395 36.7933 55.7347 36.623 55.5999 36.478C55.4651 36.333 55.3029 36.2161 55.1227 36.134C54.9425 36.052 54.7479 36.0064 54.55 36V36Z" fill="#FE5B0C"></path> <path d="M74.05 60.5C71.533 60.4893 69.1143 61.477 67.3242 63.2465C65.5341 65.016 64.5185 67.423 64.5 69.94C64.4933 70.137 64.5255 70.3334 64.5948 70.5179C64.6641 70.7025 64.7691 70.8716 64.9037 71.0155C65.0384 71.1595 65.2001 71.2755 65.3797 71.3569C65.5592 71.4383 65.753 71.4835 65.95 71.49H66C66.3893 71.4902 66.7635 71.339 67.0434 71.0684C67.3233 70.7979 67.487 70.4291 67.5 70.04C67.4998 68.32 68.1762 66.6689 69.383 65.4434C70.5898 64.2179 72.2302 63.5162 73.95 63.49C74.148 63.5008 74.3461 63.4714 74.5325 63.4036C74.7188 63.3359 74.8895 63.2311 75.0344 63.0956C75.1792 62.9602 75.2951 62.7968 75.3751 62.6154C75.4551 62.434 75.4976 62.2382 75.5 62.04C75.5108 61.6438 75.3643 61.2594 75.0927 60.9709C74.821 60.6823 74.4461 60.513 74.05 60.5V60.5Z" fill="#FE5B0C"></path> <path d="M16.5 51.5C12.92 51.5 10 54.86 10 59C10 59.3978 10.158 59.7794 10.4393 60.0607C10.7206 60.342 11.1022 60.5 11.5 60.5C11.8978 60.5 12.2794 60.342 12.5607 60.0607C12.842 59.7794 13 59.3978 13 59C13 56.52 14.57 54.5 16.5 54.5C16.8978 54.5 17.2794 54.342 17.5607 54.0607C17.842 53.7794 18 53.3978 18 53C18 52.6022 17.842 52.2206 17.5607 51.9393C17.2794 51.658 16.8978 51.5 16.5 51.5V51.5Z" fill="#FE5B0C"></path> </svg> 