<?xml version="1.0" encoding="UTF-8"?> <svg xmlns="http://www.w3.org/2000/svg" width="101" height="101" viewBox="0 0 101 101" fill="none"> <path d="M50.923 74.959H19.403V28.364L46.161 5.08799L72.277 27.41V56.665C72.277 57.493 72.948 58.165 73.777 58.165C74.606 58.165 75.277 57.493 75.277 56.665V29.974L85.038 38.317C85.321 38.558 85.667 38.676 86.012 38.676C86.435 38.676 86.856 38.497 87.153 38.151C87.692 37.521 87.617 36.575 86.987 36.036L47.127 1.96799C46.561 1.48399 45.728 1.48899 45.168 1.97599L6.141 35.924C5.516 36.468 5.45 37.415 5.994 38.04C6.538 38.665 7.484 38.73 8.11 38.187L16.403 30.973V76.458C16.403 77.286 17.074 77.958 17.903 77.958H50.923C51.752 77.958 52.423 77.286 52.423 76.458C52.423 75.63 51.752 74.959 50.923 74.959Z" fill="#FE5B0C"></path> <path d="M92.467 90.794L58.178 51.861C58.597 47.772 57.512 44.464 54.982 42.284C51.905 39.633 49.076 40.137 44.796 40.897C44.235 40.997 43.641 41.103 43.007 41.209C41.392 41.48 40.03 39.888 38.55 37.938C37.502 36.557 36.596 35.366 35.181 35.738C33.803 36.102 33.482 37.674 33.289 39.118C32.436 45.514 32.844 54.4 36.797 58.395C40.031 61.675 44.497 62.135 46.747 62.135C47.024 62.135 47.252 62.127 47.455 62.118L86.756 96.506C87.973 97.707 89.482 98.395 90.9 98.394C90.911 98.394 90.923 98.394 90.934 98.394C91.911 98.387 92.792 98.033 93.417 97.397C94.996 95.787 94.576 92.895 92.467 90.794ZM36.221 39.832C37.649 41.712 40.015 44.754 43.5 44.168C44.145 44.061 44.75 43.953 45.32 43.852C49.559 43.097 51.123 42.919 53.023 44.558C54.819 46.106 55.538 48.499 55.189 51.659L47.331 59.119C45.946 59.179 41.717 59.112 38.931 56.288C36.014 53.337 35.484 45.761 36.221 39.832ZM56.526 54.525L59.644 58.065L53.919 63.788L50.198 60.532L56.526 54.525ZM91.276 95.295C91.214 95.357 91.069 95.388 90.901 95.393C90.437 95.393 89.629 95.125 88.797 94.309L56.182 65.768L61.631 60.321L90.25 92.815C90.274 92.842 90.299 92.869 90.325 92.894C91.353 93.904 91.527 95.04 91.276 95.295Z" fill="#FE5B0C"></path> </svg> 